<svg data-v-c27b806a="" width="220" height="220" shape-rendering="crispEdges" xmlns="http://www.w3.org/2000/svg" viewBox="0 0 61 61"><defs><!----></defs><rect width="100%" height="100%" fill="#fff"></rect><path fill="#000" d="M0 0h7v1H0zM8 0h1v1H8zM13 0h2v1H13zM17 0h1v1H17zM20 0h3v1H20zM24 0h4v1H24zM30 0h1v1H30zM34 0h2v1H34zM39 0h2v1H39zM42 0h2v1H42zM45 0h1v1H45zM51 0h2v1H51zM54,0 h7v1H54zM0 1h1v1H0zM6 1h1v1H6zM8 1h1v1H8zM10 1h1v1H10zM15 1h1v1H15zM19 1h2v1H19zM25 1h1v1H25zM27 1h1v1H27zM31 1h2v1H31zM36 1h2v1H36zM41 1h1v1H41zM43 1h1v1H43zM45 1h2v1H45zM51 1h2v1H51zM54 1h1v1H54zM60,1 h1v1H60zM0 2h1v1H0zM2 2h3v1H2zM6 2h1v1H6zM8 2h1v1H8zM11 2h1v1H11zM13 2h4v1H13zM18 2h4v1H18zM24 2h1v1H24zM26 2h1v1H26zM28 2h1v1H28zM30 2h1v1H30zM32 2h2v1H32zM35 2h1v1H35zM40 2h3v1H40zM44 2h1v1H44zM46 2h1v1H46zM48 2h1v1H48zM50 2h3v1H50zM54 2h1v1H54zM56 2h3v1H56zM60,2 h1v1H60zM0 3h1v1H0zM2 3h3v1H2zM6 3h1v1H6zM11 3h1v1H11zM15 3h2v1H15zM18 3h1v1H18zM25 3h3v1H25zM31 3h3v1H31zM35 3h2v1H35zM39 3h5v1H39zM46 3h2v1H46zM49 3h2v1H49zM52 3h1v1H52zM54 3h1v1H54zM56 3h3v1H56zM60,3 h1v1H60zM0 4h1v1H0zM2 4h3v1H2zM6 4h1v1H6zM9 4h1v1H9zM13 4h2v1H13zM16 4h3v1H16zM20 4h4v1H20zM25 4h1v1H25zM27 4h6v1H27zM37 4h1v1H37zM42 4h1v1H42zM44 4h1v1H44zM49 4h3v1H49zM54 4h1v1H54zM56 4h3v1H56zM60,4 h1v1H60zM0 5h1v1H0zM6 5h1v1H6zM8 5h1v1H8zM11 5h1v1H11zM13 5h1v1H13zM15 5h1v1H15zM17 5h2v1H17zM20 5h1v1H20zM22 5h2v1H22zM25 5h1v1H25zM28 5h1v1H28zM32 5h9v1H32zM45 5h3v1H45zM50 5h1v1H50zM54 5h1v1H54zM60,5 h1v1H60zM0 6h7v1H0zM8 6h1v1H8zM10 6h1v1H10zM12 6h1v1H12zM14 6h1v1H14zM16 6h1v1H16zM18 6h1v1H18zM20 6h1v1H20zM22 6h1v1H22zM24 6h1v1H24zM26 6h1v1H26zM28 6h1v1H28zM30 6h1v1H30zM32 6h1v1H32zM34 6h1v1H34zM36 6h1v1H36zM38 6h1v1H38zM40 6h1v1H40zM42 6h1v1H42zM44 6h1v1H44zM46 6h1v1H46zM48 6h1v1H48zM50 6h1v1H50zM52 6h1v1H52zM54,6 h7v1H54zM8 7h1v1H8zM10 7h4v1H10zM17 7h1v1H17zM23 7h4v1H23zM28 7h1v1H28zM32 7h1v1H32zM35 7h2v1H35zM38 7h2v1H38zM42 7h3v1H42zM2 8h3v1H2zM6 8h1v1H6zM8 8h3v1H8zM12 8h7v1H12zM20 8h3v1H20zM25 8h2v1H25zM28 8h6v1H28zM35 8h2v1H35zM38 8h1v1H38zM40 8h3v1H40zM45 8h1v1H45zM48 8h3v1H48zM52 8h4v1H52zM58,8 h3v1H58zM0 9h1v1H0zM9 9h2v1H9zM13 9h1v1H13zM19 9h2v1H19zM22 9h1v1H22zM25 9h2v1H25zM29 9h1v1H29zM31 9h1v1H31zM33 9h1v1H33zM37 9h3v1H37zM42 9h1v1H42zM44 9h1v1H44zM48 9h2v1H48zM51 9h1v1H51zM53 9h2v1H53zM56 9h1v1H56zM58 9h2v1H58zM3 10h1v1H3zM5 10h4v1H5zM10 10h1v1H10zM15 10h2v1H15zM21 10h6v1H21zM30 10h1v1H30zM32 10h2v1H32zM35 10h2v1H35zM38 10h2v1H38zM41 10h2v1H41zM46 10h1v1H46zM50 10h1v1H50zM54 10h1v1H54zM58,10 h3v1H58zM1 11h2v1H1zM4 11h1v1H4zM9 11h1v1H9zM11 11h1v1H11zM13 11h3v1H13zM18 11h1v1H18zM20 11h2v1H20zM24 11h2v1H24zM29 11h1v1H29zM37 11h1v1H37zM39 11h1v1H39zM43 11h3v1H43zM47 11h1v1H47zM54 11h1v1H54zM56 11h1v1H56zM59 11h1v1H59zM1 12h2v1H1zM4 12h7v1H4zM12 12h2v1H12zM15 12h1v1H15zM19 12h1v1H19zM21 12h7v1H21zM29 12h1v1H29zM35 12h1v1H35zM38 12h1v1H38zM41 12h2v1H41zM45 12h2v1H45zM48 12h5v1H48zM55 12h1v1H55zM58 12h1v1H58zM60,12 h1v1H60zM0 13h1v1H0zM2 13h4v1H2zM7 13h4v1H7zM12 13h1v1H12zM14 13h1v1H14zM16 13h1v1H16zM20 13h1v1H20zM23 13h1v1H23zM27 13h1v1H27zM30 13h2v1H30zM35 13h1v1H35zM38 13h1v1H38zM41 13h2v1H41zM44 13h1v1H44zM47 13h2v1H47zM53 13h2v1H53zM56 13h2v1H56zM59 13h1v1H59zM0 14h1v1H0zM2 14h1v1H2zM4 14h1v1H4zM6 14h1v1H6zM8 14h1v1H8zM10 14h5v1H10zM19 14h7v1H19zM27 14h1v1H27zM29 14h6v1H29zM36 14h3v1H36zM43 14h1v1H43zM45 14h6v1H45zM59,14 h2v1H59zM0 15h2v1H0zM3 15h1v1H3zM5 15h1v1H5zM7 15h1v1H7zM12 15h2v1H12zM16 15h3v1H16zM20 15h1v1H20zM24 15h2v1H24zM27 15h3v1H27zM34 15h1v1H34zM36 15h1v1H36zM40 15h1v1H40zM44 15h1v1H44zM49 15h1v1H49zM52 15h3v1H52zM56 15h2v1H56zM60,15 h1v1H60zM0 16h1v1H0zM2 16h5v1H2zM9 16h2v1H9zM13 16h1v1H13zM15 16h2v1H15zM23 16h3v1H23zM29 16h6v1H29zM41 16h2v1H41zM45 16h1v1H45zM47 16h3v1H47zM51 16h3v1H51zM55 16h1v1H55zM57 16h2v1H57zM60,16 h1v1H60zM0 17h1v1H0zM3 17h1v1H3zM5 17h1v1H5zM7 17h1v1H7zM9 17h1v1H9zM14 17h1v1H14zM17 17h3v1H17zM23 17h3v1H23zM27 17h1v1H27zM29 17h1v1H29zM31 17h1v1H31zM33 17h2v1H33zM37 17h3v1H37zM41 17h2v1H41zM47 17h1v1H47zM51 17h1v1H51zM54 17h2v1H54zM58 17h1v1H58zM60,17 h1v1H60zM0 18h4v1H0zM6 18h1v1H6zM12 18h1v1H12zM14 18h1v1H14zM16 18h3v1H16zM20 18h3v1H20zM24 18h2v1H24zM30 18h1v1H30zM32 18h4v1H32zM40 18h1v1H40zM45 18h2v1H45zM48 18h4v1H48zM53 18h1v1H53zM57 18h1v1H57zM60,18 h1v1H60zM3 19h1v1H3zM8 19h1v1H8zM10 19h2v1H10zM13 19h2v1H13zM16 19h2v1H16zM19 19h1v1H19zM22 19h2v1H22zM29 19h1v1H29zM31 19h2v1H31zM35 19h1v1H35zM39 19h1v1H39zM41 19h5v1H41zM47 19h1v1H47zM52 19h3v1H52zM56 19h1v1H56zM59,19 h2v1H59zM2 20h1v1H2zM5 20h5v1H5zM11 20h4v1H11zM17 20h2v1H17zM20 20h1v1H20zM22 20h4v1H22zM27 20h2v1H27zM30 20h3v1H30zM35 20h2v1H35zM38 20h6v1H38zM45 20h2v1H45zM48 20h2v1H48zM52 20h4v1H52zM57,20 h4v1H57zM0 21h1v1H0zM2 21h2v1H2zM5 21h1v1H5zM7 21h3v1H7zM11 21h2v1H11zM14 21h3v1H14zM21 21h5v1H21zM31 21h5v1H31zM39 21h1v1H39zM42 21h3v1H42zM48 21h2v1H48zM54 21h4v1H54zM60,21 h1v1H60zM2 22h3v1H2zM6 22h4v1H6zM11 22h2v1H11zM14 22h1v1H14zM21 22h1v1H21zM23 22h2v1H23zM26 22h3v1H26zM30 22h3v1H30zM34 22h1v1H34zM36 22h2v1H36zM39 22h3v1H39zM45 22h1v1H45zM47 22h2v1H47zM50 22h1v1H50zM53 22h1v1H53zM59,22 h2v1H59zM0 23h3v1H0zM4 23h1v1H4zM8 23h1v1H8zM11 23h8v1H11zM20 23h4v1H20zM27 23h2v1H27zM30 23h2v1H30zM33 23h1v1H33zM35 23h1v1H35zM37 23h1v1H37zM41 23h2v1H41zM44 23h4v1H44zM49 23h1v1H49zM51 23h1v1H51zM54 23h2v1H54zM0 24h3v1H0zM4 24h1v1H4zM6 24h1v1H6zM8 24h4v1H8zM13 24h1v1H13zM15 24h2v1H15zM20 24h3v1H20zM27 24h1v1H27zM32 24h1v1H32zM35 24h2v1H35zM40 24h3v1H40zM48 24h2v1H48zM53 24h1v1H53zM57 24h2v1H57zM60,24 h1v1H60zM0 25h2v1H0zM5 25h1v1H5zM8 25h2v1H8zM11 25h1v1H11zM13 25h3v1H13zM18 25h1v1H18zM23 25h1v1H23zM26 25h5v1H26zM32 25h1v1H32zM36 25h1v1H36zM39 25h2v1H39zM42 25h4v1H42zM47 25h3v1H47zM51 25h1v1H51zM53 25h3v1H53zM59 25h1v1H59zM2 26h1v1H2zM5 26h4v1H5zM10 26h1v1H10zM16 26h3v1H16zM22 26h4v1H22zM32 26h5v1H32zM38 26h3v1H38zM46 26h3v1H46zM57 26h1v1H57zM60,26 h1v1H60zM8 27h2v1H8zM11 27h4v1H11zM20 27h1v1H20zM22 27h1v1H22zM26 27h1v1H26zM29 27h3v1H29zM33 27h1v1H33zM37 27h1v1H37zM39 27h4v1H39zM44 27h2v1H44zM47 27h1v1H47zM49 27h3v1H49zM53 27h4v1H53zM60,27 h1v1H60zM0 28h10v1H0zM13 28h1v1H13zM16 28h2v1H16zM19 28h2v1H19zM23 28h2v1H23zM28 28h5v1H28zM37 28h7v1H37zM45 28h4v1H45zM50,28 h11v1H50zM0 29h1v1H0zM4 29h1v1H4zM8 29h5v1H8zM14 29h1v1H14zM17 29h2v1H17zM21 29h5v1H21zM27 29h2v1H27zM32 29h1v1H32zM36 29h1v1H36zM42 29h1v1H42zM44 29h2v1H44zM49 29h2v1H49zM52 29h1v1H52zM56 29h1v1H56zM59 29h1v1H59zM1 30h2v1H1zM4 30h1v1H4zM6 30h1v1H6zM8 30h2v1H8zM14 30h1v1H14zM17 30h1v1H17zM21 30h1v1H21zM23 30h2v1H23zM27 30h2v1H27zM30 30h1v1H30zM32 30h1v1H32zM36 30h2v1H36zM41 30h1v1H41zM43 30h1v1H43zM46 30h2v1H46zM51 30h2v1H51zM54 30h1v1H54zM56 30h2v1H56zM60,30 h1v1H60zM0 31h1v1H0zM4 31h1v1H4zM8 31h2v1H8zM12 31h1v1H12zM15 31h1v1H15zM17 31h4v1H17zM23 31h2v1H23zM27 31h2v1H27zM32 31h3v1H32zM36 31h1v1H36zM39 31h4v1H39zM44 31h1v1H44zM46 31h2v1H46zM51 31h2v1H51zM56 31h2v1H56zM59,31 h2v1H59zM2 32h10v1H2zM16 32h2v1H16zM19 32h1v1H19zM22 32h2v1H22zM25 32h1v1H25zM27 32h7v1H27zM38 32h1v1H38zM40 32h1v1H40zM42 32h2v1H42zM47 32h4v1H47zM52 32h5v1H52zM58 32h1v1H58zM60,32 h1v1H60zM3 33h3v1H3zM7 33h2v1H7zM10 33h4v1H10zM15 33h2v1H15zM21 33h2v1H21zM26 33h3v1H26zM35 33h2v1H35zM38 33h2v1H38zM41 33h5v1H41zM49 33h1v1H49zM51 33h2v1H51zM57 33h3v1H57zM3 34h5v1H3zM9 34h2v1H9zM12 34h2v1H12zM15 34h1v1H15zM18 34h1v1H18zM20 34h2v1H20zM23 34h1v1H23zM26 34h1v1H26zM29 34h2v1H29zM32 34h1v1H32zM34 34h1v1H34zM36 34h4v1H36zM43 34h6v1H43zM50 34h2v1H50zM53 34h3v1H53zM57 34h1v1H57zM60,34 h1v1H60zM1 35h1v1H1zM3 35h2v1H3zM10 35h2v1H10zM13 35h3v1H13zM17 35h1v1H17zM22 35h1v1H22zM24 35h2v1H24zM27 35h2v1H27zM30 35h1v1H30zM32 35h2v1H32zM37 35h1v1H37zM41 35h2v1H41zM47 35h1v1H47zM49 35h2v1H49zM52 35h1v1H52zM55 35h1v1H55zM57 35h1v1H57zM2 36h1v1H2zM4 36h3v1H4zM14 36h1v1H14zM18 36h1v1H18zM20 36h5v1H20zM26 36h1v1H26zM28 36h1v1H28zM32 36h1v1H32zM34 36h3v1H34zM38 36h2v1H38zM41 36h4v1H41zM47 36h3v1H47zM51 36h1v1H51zM56 36h1v1H56zM58,36 h3v1H58zM1 37h1v1H1zM4 37h2v1H4zM7 37h2v1H7zM11 37h7v1H11zM21 37h2v1H21zM24 37h2v1H24zM27 37h2v1H27zM30 37h1v1H30zM32 37h4v1H32zM41 37h2v1H41zM44 37h1v1H44zM48 37h2v1H48zM52 37h1v1H52zM54 37h1v1H54zM0 38h4v1H0zM6 38h1v1H6zM9 38h1v1H9zM13 38h3v1H13zM17 38h2v1H17zM20 38h3v1H20zM24 38h3v1H24zM28 38h1v1H28zM31 38h1v1H31zM36 38h4v1H36zM43 38h3v1H43zM47 38h2v1H47zM50 38h1v1H50zM52 38h1v1H52zM54 38h1v1H54zM57,38 h4v1H57zM2 39h1v1H2zM4 39h1v1H4zM8 39h1v1H8zM13 39h1v1H13zM16 39h2v1H16zM20 39h4v1H20zM29 39h2v1H29zM34 39h1v1H34zM36 39h2v1H36zM39 39h1v1H39zM41 39h2v1H41zM45 39h1v1H45zM50 39h1v1H50zM53 39h1v1H53zM55 39h1v1H55zM57 39h1v1H57zM3 40h1v1H3zM6 40h5v1H6zM12 40h1v1H12zM14 40h1v1H14zM16 40h3v1H16zM20 40h1v1H20zM25 40h1v1H25zM27 40h2v1H27zM30 40h1v1H30zM32 40h2v1H32zM43 40h1v1H43zM47 40h2v1H47zM51 40h1v1H51zM53 40h1v1H53zM55,40 h6v1H55zM0 41h4v1H0zM7 41h2v1H7zM12 41h1v1H12zM15 41h3v1H15zM20 41h3v1H20zM26 41h2v1H26zM29 41h1v1H29zM32 41h1v1H32zM34 41h3v1H34zM38 41h3v1H38zM42 41h1v1H42zM44 41h2v1H44zM47 41h1v1H47zM49 41h1v1H49zM52 41h1v1H52zM58 41h1v1H58zM2 42h2v1H2zM6 42h1v1H6zM11 42h1v1H11zM13 42h1v1H13zM17 42h1v1H17zM19 42h1v1H19zM24 42h2v1H24zM28 42h3v1H28zM33 42h1v1H33zM37 42h1v1H37zM39 42h1v1H39zM41 42h1v1H41zM48 42h6v1H48zM55 42h1v1H55zM57,42 h4v1H57zM1 43h1v1H1zM3 43h2v1H3zM8 43h2v1H8zM13 43h3v1H13zM17 43h1v1H17zM19 43h3v1H19zM23 43h3v1H23zM28 43h2v1H28zM33 43h3v1H33zM37 43h1v1H37zM39 43h1v1H39zM46 43h2v1H46zM54 43h1v1H54zM58 43h2v1H58zM0 44h1v1H0zM5 44h7v1H5zM13 44h1v1H13zM15 44h1v1H15zM21 44h1v1H21zM24 44h4v1H24zM30 44h1v1H30zM32 44h1v1H32zM34 44h5v1H34zM42 44h2v1H42zM46 44h1v1H46zM48 44h1v1H48zM50 44h2v1H50zM53 44h1v1H53zM56 44h2v1H56zM60,44 h1v1H60zM1 45h1v1H1zM4 45h2v1H4zM8 45h2v1H8zM11 45h1v1H11zM14 45h1v1H14zM16 45h6v1H16zM24 45h1v1H24zM28 45h1v1H28zM33 45h1v1H33zM35 45h1v1H35zM38 45h1v1H38zM42 45h2v1H42zM45 45h1v1H45zM48 45h2v1H48zM51 45h1v1H51zM54 45h2v1H54zM58 45h1v1H58zM60,45 h1v1H60zM0 46h5v1H0zM6 46h3v1H6zM11 46h2v1H11zM14 46h1v1H14zM18 46h2v1H18zM27 46h3v1H27zM31 46h1v1H31zM33 46h1v1H33zM36 46h2v1H36zM43 46h1v1H43zM45 46h2v1H45zM52 46h3v1H52zM56 46h1v1H56zM59,46 h2v1H59zM0 47h1v1H0zM2 47h3v1H2zM7 47h1v1H7zM9 47h1v1H9zM11 47h1v1H11zM14 47h2v1H14zM18 47h1v1H18zM23 47h1v1H23zM25 47h1v1H25zM29 47h2v1H29zM34 47h3v1H34zM38 47h1v1H38zM40 47h3v1H40zM44 47h1v1H44zM46 47h4v1H46zM52 47h1v1H52zM55 47h1v1H55zM59 47h1v1H59zM2 48h3v1H2zM6 48h2v1H6zM12 48h2v1H12zM15 48h1v1H15zM22 48h4v1H22zM30 48h1v1H30zM38 48h2v1H38zM41 48h3v1H41zM45 48h2v1H45zM48 48h2v1H48zM51 48h1v1H51zM53 48h1v1H53zM56 48h3v1H56zM60,48 h1v1H60zM0 49h2v1H0zM3 49h3v1H3zM7 49h2v1H7zM10 49h1v1H10zM13 49h1v1H13zM17 49h3v1H17zM21 49h3v1H21zM25 49h3v1H25zM29 49h2v1H29zM33 49h1v1H33zM35 49h1v1H35zM38 49h5v1H38zM47 49h2v1H47zM51 49h1v1H51zM54 49h2v1H54zM59 49h1v1H59zM2 50h5v1H2zM8 50h2v1H8zM15 50h1v1H15zM18 50h1v1H18zM21 50h1v1H21zM24 50h2v1H24zM28 50h2v1H28zM31 50h3v1H31zM35 50h1v1H35zM38 50h2v1H38zM42 50h2v1H42zM45 50h2v1H45zM48 50h1v1H48zM50 50h1v1H50zM53 50h3v1H53zM57 50h1v1H57zM60,50 h1v1H60zM0 51h3v1H0zM4 51h1v1H4zM7 51h1v1H7zM9 51h1v1H9zM13 51h1v1H13zM17 51h1v1H17zM20 51h1v1H20zM23 51h1v1H23zM26 51h2v1H26zM30 51h1v1H30zM33 51h1v1H33zM36 51h1v1H36zM38 51h1v1H38zM40 51h2v1H40zM43 51h3v1H43zM47 51h1v1H47zM49 51h2v1H49zM52 51h1v1H52zM55 51h2v1H55zM59 51h1v1H59zM0 52h4v1H0zM6 52h1v1H6zM8 52h3v1H8zM14 52h3v1H14zM18 52h3v1H18zM23 52h2v1H23zM26 52h1v1H26zM28 52h5v1H28zM34 52h1v1H34zM36 52h4v1H36zM45 52h1v1H45zM48 52h1v1H48zM51,52 h10v1H51zM8 53h1v1H8zM11 53h1v1H11zM13 53h2v1H13zM16 53h3v1H16zM21 53h1v1H21zM23 53h1v1H23zM25 53h1v1H25zM28 53h1v1H28zM32 53h2v1H32zM35 53h4v1H35zM41 53h1v1H41zM47 53h2v1H47zM52 53h1v1H52zM56 53h1v1H56zM59 53h1v1H59zM0 54h7v1H0zM12 54h3v1H12zM16 54h2v1H16zM19 54h1v1H19zM21 54h2v1H21zM24 54h3v1H24zM28 54h1v1H28zM30 54h1v1H30zM32 54h1v1H32zM34 54h2v1H34zM38 54h1v1H38zM42 54h1v1H42zM46 54h3v1H46zM50 54h1v1H50zM52 54h1v1H52zM54 54h1v1H54zM56 54h1v1H56zM59,54 h2v1H59zM0 55h1v1H0zM6 55h1v1H6zM9 55h1v1H9zM12 55h4v1H12zM20 55h1v1H20zM22 55h1v1H22zM24 55h1v1H24zM27 55h2v1H27zM32 55h1v1H32zM34 55h2v1H34zM37 55h2v1H37zM40 55h2v1H40zM43 55h2v1H43zM49 55h1v1H49zM51 55h2v1H51zM56 55h1v1H56zM0 56h1v1H0zM2 56h3v1H2zM6 56h1v1H6zM8 56h1v1H8zM10 56h3v1H10zM15 56h5v1H15zM22 56h1v1H22zM24 56h2v1H24zM27 56h9v1H27zM37 56h3v1H37zM47 56h10v1H47zM58 56h2v1H58zM0 57h1v1H0zM2 57h3v1H2zM6 57h1v1H6zM8 57h1v1H8zM11 57h5v1H11zM20 57h3v1H20zM25 57h2v1H25zM28 57h1v1H28zM30 57h1v1H30zM33 57h2v1H33zM37 57h2v1H37zM41 57h2v1H41zM44 57h1v1H44zM47 57h3v1H47zM51 57h3v1H51zM56 57h1v1H56zM60,57 h1v1H60zM0 58h1v1H0zM2 58h3v1H2zM6 58h1v1H6zM8 58h2v1H8zM14 58h1v1H14zM19 58h3v1H19zM24 58h5v1H24zM30 58h5v1H30zM39 58h1v1H39zM41 58h1v1H41zM43 58h1v1H43zM46 58h2v1H46zM50 58h2v1H50zM54 58h2v1H54zM60,58 h1v1H60zM0 59h1v1H0zM6 59h1v1H6zM12 59h2v1H12zM16 59h4v1H16zM22 59h1v1H22zM25 59h2v1H25zM29 59h1v1H29zM31 59h2v1H31zM35 59h1v1H35zM37 59h1v1H37zM39 59h1v1H39zM42 59h3v1H42zM46 59h1v1H46zM49 59h1v1H49zM51 59h2v1H51zM54 59h2v1H54zM57 59h1v1H57zM60,59 h1v1H60zM0 60h7v1H0zM9 60h1v1H9zM11 60h2v1H11zM14 60h2v1H14zM17 60h1v1H17zM20 60h2v1H20zM23 60h1v1H23zM26 60h1v1H26zM35 60h1v1H35zM37 60h1v1H37zM43 60h1v1H43zM46 60h3v1H46zM50 60h1v1H50zM53 60h1v1H53zM58,60 h3v1H58z"></path><!----></svg>