<svg data-v-c27b806a="" width="220" height="220" shape-rendering="crispEdges" xmlns="http://www.w3.org/2000/svg" viewBox="0 0 61 61"><defs><!----></defs><rect width="100%" height="100%" fill="#fff"></rect><path fill="#000" d="M0 0h7v1H0zM8 0h1v1H8zM13 0h2v1H13zM21 0h2v1H21zM24 0h4v1H24zM30 0h1v1H30zM34 0h2v1H34zM37 0h1v1H37zM39 0h2v1H39zM42 0h2v1H42zM45 0h1v1H45zM51 0h2v1H51zM54,0 h7v1H54zM0 1h1v1H0zM6 1h1v1H6zM8 1h1v1H8zM10 1h1v1H10zM15 1h1v1H15zM18 1h3v1H18zM25 1h1v1H25zM27 1h1v1H27zM31 1h2v1H31zM34 1h1v1H34zM38 1h4v1H38zM43 1h1v1H43zM45 1h2v1H45zM51 1h2v1H51zM54 1h1v1H54zM60,1 h1v1H60zM0 2h1v1H0zM2 2h3v1H2zM6 2h1v1H6zM8 2h1v1H8zM11 2h1v1H11zM13 2h9v1H13zM24 2h1v1H24zM26 2h1v1H26zM28 2h1v1H28zM30 2h1v1H30zM32 2h4v1H32zM40 2h3v1H40zM44 2h1v1H44zM46 2h1v1H46zM48 2h1v1H48zM50 2h3v1H50zM54 2h1v1H54zM56 2h3v1H56zM60,2 h1v1H60zM0 3h1v1H0zM2 3h3v1H2zM6 3h1v1H6zM11 3h1v1H11zM15 3h2v1H15zM18 3h1v1H18zM20 3h1v1H20zM24 3h4v1H24zM31 3h2v1H31zM35 3h2v1H35zM39 3h5v1H39zM46 3h2v1H46zM49 3h2v1H49zM52 3h1v1H52zM54 3h1v1H54zM56 3h3v1H56zM60,3 h1v1H60zM0 4h1v1H0zM2 4h3v1H2zM6 4h1v1H6zM9 4h1v1H9zM13 4h2v1H13zM16 4h2v1H16zM21 4h3v1H21zM25 4h1v1H25zM27 4h6v1H27zM37 4h1v1H37zM40 4h1v1H40zM42 4h2v1H42zM49 4h3v1H49zM54 4h1v1H54zM56 4h3v1H56zM60,4 h1v1H60zM0 5h1v1H0zM6 5h1v1H6zM8 5h1v1H8zM11 5h1v1H11zM13 5h3v1H13zM18 5h3v1H18zM22 5h1v1H22zM24 5h2v1H24zM28 5h1v1H28zM32 5h1v1H32zM34 5h5v1H34zM40 5h1v1H40zM45 5h3v1H45zM50 5h1v1H50zM54 5h1v1H54zM60,5 h1v1H60zM0 6h7v1H0zM8 6h1v1H8zM10 6h1v1H10zM12 6h1v1H12zM14 6h1v1H14zM16 6h1v1H16zM18 6h1v1H18zM20 6h1v1H20zM22 6h1v1H22zM24 6h1v1H24zM26 6h1v1H26zM28 6h1v1H28zM30 6h1v1H30zM32 6h1v1H32zM34 6h1v1H34zM36 6h1v1H36zM38 6h1v1H38zM40 6h1v1H40zM42 6h1v1H42zM44 6h1v1H44zM46 6h1v1H46zM48 6h1v1H48zM50 6h1v1H50zM52 6h1v1H52zM54,6 h7v1H54zM8 7h1v1H8zM10 7h5v1H10zM17 7h1v1H17zM19 7h1v1H19zM23 7h4v1H23zM28 7h1v1H28zM32 7h1v1H32zM34 7h3v1H34zM38 7h2v1H38zM42 7h1v1H42zM44 7h1v1H44zM2 8h3v1H2zM6 8h1v1H6zM8 8h3v1H8zM12 8h1v1H12zM14 8h3v1H14zM20 8h3v1H20zM25 8h2v1H25zM28 8h5v1H28zM35 8h2v1H35zM38 8h1v1H38zM41 8h3v1H41zM45 8h1v1H45zM48 8h3v1H48zM52 8h4v1H52zM58,8 h3v1H58zM0 9h1v1H0zM9 9h2v1H9zM13 9h2v1H13zM17 9h1v1H17zM19 9h2v1H19zM22 9h1v1H22zM24 9h3v1H24zM29 9h1v1H29zM31 9h1v1H31zM37 9h2v1H37zM40 9h1v1H40zM42 9h2v1H42zM48 9h2v1H48zM51 9h1v1H51zM53 9h2v1H53zM56 9h1v1H56zM58 9h2v1H58zM3 10h1v1H3zM5 10h4v1H5zM10 10h1v1H10zM13 10h4v1H13zM21 10h6v1H21zM30 10h4v1H30zM35 10h2v1H35zM38 10h1v1H38zM40 10h3v1H40zM46 10h1v1H46zM50 10h1v1H50zM54 10h1v1H54zM58,10 h3v1H58zM1 11h2v1H1zM4 11h1v1H4zM9 11h1v1H9zM11 11h1v1H11zM14 11h2v1H14zM18 11h1v1H18zM20 11h2v1H20zM23 11h3v1H23zM29 11h1v1H29zM31 11h1v1H31zM34 11h1v1H34zM37 11h1v1H37zM39 11h2v1H39zM43 11h3v1H43zM47 11h1v1H47zM54 11h1v1H54zM56 11h1v1H56zM59 11h1v1H59zM1 12h2v1H1zM4 12h8v1H4zM13 12h3v1H13zM19 12h1v1H19zM21 12h3v1H21zM25 12h3v1H25zM29 12h1v1H29zM31 12h1v1H31zM35 12h1v1H35zM38 12h5v1H38zM45 12h2v1H45zM48 12h1v1H48zM51 12h2v1H51zM55 12h1v1H55zM58 12h1v1H58zM60,12 h1v1H60zM0 13h1v1H0zM2 13h4v1H2zM7 13h4v1H7zM14 13h1v1H14zM16 13h1v1H16zM20 13h1v1H20zM27 13h1v1H27zM30 13h2v1H30zM33 13h3v1H33zM38 13h1v1H38zM40 13h3v1H40zM44 13h1v1H44zM47 13h3v1H47zM53 13h2v1H53zM56 13h2v1H56zM59 13h1v1H59zM0 14h1v1H0zM2 14h1v1H2zM4 14h1v1H4zM6 14h1v1H6zM8 14h1v1H8zM10 14h1v1H10zM13 14h1v1H13zM19 14h6v1H19zM27 14h1v1H27zM29 14h2v1H29zM33 14h2v1H33zM36 14h4v1H36zM43 14h1v1H43zM45 14h4v1H45zM50 14h1v1H50zM59,14 h2v1H59zM0 15h2v1H0zM3 15h1v1H3zM5 15h1v1H5zM7 15h1v1H7zM11 15h2v1H11zM16 15h3v1H16zM20 15h1v1H20zM25 15h1v1H25zM27 15h3v1H27zM34 15h1v1H34zM36 15h1v1H36zM40 15h1v1H40zM44 15h1v1H44zM47 15h1v1H47zM49 15h1v1H49zM52 15h3v1H52zM56 15h2v1H56zM60,15 h1v1H60zM0 16h1v1H0zM2 16h2v1H2zM6 16h1v1H6zM9 16h3v1H9zM13 16h1v1H13zM15 16h2v1H15zM23 16h1v1H23zM25 16h2v1H25zM29 16h6v1H29zM41 16h2v1H41zM45 16h1v1H45zM48 16h1v1H48zM51 16h3v1H51zM55 16h1v1H55zM57 16h2v1H57zM60,16 h1v1H60zM0 17h1v1H0zM3 17h2v1H3zM7 17h1v1H7zM9 17h1v1H9zM13 17h2v1H13zM17 17h3v1H17zM25 17h1v1H25zM27 17h1v1H27zM29 17h1v1H29zM33 17h2v1H33zM37 17h3v1H37zM41 17h2v1H41zM48 17h2v1H48zM51 17h1v1H51zM54 17h2v1H54zM58 17h1v1H58zM60,17 h1v1H60zM0 18h4v1H0zM6 18h1v1H6zM9 18h2v1H9zM14 18h1v1H14zM16 18h3v1H16zM20 18h3v1H20zM27 18h2v1H27zM30 18h1v1H30zM32 18h4v1H32zM40 18h1v1H40zM45 18h2v1H45zM48 18h1v1H48zM50 18h2v1H50zM53 18h1v1H53zM57 18h1v1H57zM60,18 h1v1H60zM3 19h1v1H3zM8 19h3v1H8zM13 19h2v1H13zM16 19h2v1H16zM19 19h1v1H19zM22 19h1v1H22zM24 19h1v1H24zM26 19h1v1H26zM28 19h2v1H28zM32 19h1v1H32zM35 19h1v1H35zM39 19h1v1H39zM41 19h5v1H41zM52 19h1v1H52zM54 19h1v1H54zM56 19h1v1H56zM59,19 h2v1H59zM3 20h2v1H3zM6 20h4v1H6zM11 20h1v1H11zM13 20h1v1H13zM17 20h2v1H17zM20 20h1v1H20zM22 20h7v1H22zM30 20h2v1H30zM35 20h2v1H35zM38 20h6v1H38zM45 20h5v1H45zM52 20h2v1H52zM55 20h1v1H55zM57,20 h4v1H57zM0 21h1v1H0zM3 21h1v1H3zM7 21h3v1H7zM11 21h2v1H11zM14 21h3v1H14zM21 21h4v1H21zM27 21h2v1H27zM33 21h3v1H33zM39 21h1v1H39zM42 21h3v1H42zM49 21h1v1H49zM53 21h5v1H53zM60,21 h1v1H60zM2 22h1v1H2zM4 22h6v1H4zM11 22h2v1H11zM14 22h1v1H14zM21 22h1v1H21zM23 22h3v1H23zM28 22h1v1H28zM30 22h2v1H30zM34 22h1v1H34zM36 22h2v1H36zM39 22h3v1H39zM45 22h1v1H45zM48 22h1v1H48zM50 22h1v1H50zM59,22 h2v1H59zM0 23h6v1H0zM8 23h1v1H8zM12 23h7v1H12zM20 23h4v1H20zM27 23h1v1H27zM30 23h1v1H30zM32 23h2v1H32zM35 23h1v1H35zM37 23h1v1H37zM41 23h2v1H41zM44 23h1v1H44zM47 23h1v1H47zM49 23h1v1H49zM51 23h1v1H51zM53 23h3v1H53zM0 24h2v1H0zM4 24h1v1H4zM6 24h1v1H6zM8 24h3v1H8zM13 24h1v1H13zM15 24h2v1H15zM20 24h3v1H20zM27 24h1v1H27zM35 24h2v1H35zM40 24h3v1H40zM45 24h1v1H45zM48 24h2v1H48zM53 24h2v1H53zM57 24h2v1H57zM60,24 h1v1H60zM0 25h2v1H0zM8 25h1v1H8zM12 25h4v1H12zM18 25h1v1H18zM23 25h1v1H23zM29 25h2v1H29zM32 25h1v1H32zM36 25h1v1H36zM39 25h2v1H39zM42 25h3v1H42zM47 25h3v1H47zM51 25h1v1H51zM54 25h2v1H54zM57 25h1v1H57zM0 26h2v1H0zM4 26h5v1H4zM12 26h1v1H12zM17 26h2v1H17zM22 26h3v1H22zM27 26h2v1H27zM32 26h5v1H32zM38 26h3v1H38zM45 26h4v1H45zM53 26h1v1H53zM57,26 h4v1H57zM2 27h2v1H2zM8 27h1v1H8zM11 27h5v1H11zM20 27h3v1H20zM25 27h2v1H25zM28 27h4v1H28zM33 27h1v1H33zM37 27h1v1H37zM39 27h4v1H39zM44 27h1v1H44zM47 27h1v1H47zM49 27h3v1H49zM53 27h5v1H53zM60,27 h1v1H60zM2 28h1v1H2zM4 28h7v1H4zM13 28h1v1H13zM15 28h1v1H15zM17 28h1v1H17zM19 28h2v1H19zM23 28h3v1H23zM28 28h5v1H28zM37 28h7v1H37zM46 28h3v1H46zM50 28h7v1H50zM58 28h1v1H58zM0 29h1v1H0zM2 29h1v1H2zM4 29h1v1H4zM8 29h1v1H8zM10 29h3v1H10zM14 29h1v1H14zM17 29h2v1H17zM21 29h1v1H21zM23 29h2v1H23zM27 29h2v1H27zM32 29h1v1H32zM36 29h1v1H36zM42 29h1v1H42zM44 29h2v1H44zM49 29h2v1H49zM52 29h1v1H52zM56 29h2v1H56zM59 29h1v1H59zM2 30h1v1H2zM4 30h1v1H4zM6 30h1v1H6zM8 30h2v1H8zM14 30h4v1H14zM21 30h4v1H21zM28 30h1v1H28zM30 30h1v1H30zM32 30h1v1H32zM36 30h2v1H36zM41 30h1v1H41zM43 30h1v1H43zM46 30h2v1H46zM51 30h2v1H51zM54 30h1v1H54zM56 30h1v1H56zM58 30h1v1H58zM60,30 h1v1H60zM1 31h2v1H1zM4 31h1v1H4zM8 31h2v1H8zM12 31h1v1H12zM15 31h1v1H15zM17 31h8v1H17zM27 31h2v1H27zM32 31h3v1H32zM38 31h3v1H38zM44 31h1v1H44zM46 31h2v1H46zM51 31h2v1H51zM56 31h2v1H56zM59,31 h2v1H59zM4 32h5v1H4zM11 32h1v1H11zM17 32h1v1H17zM19 32h1v1H19zM21 32h1v1H21zM23 32h1v1H23zM25 32h1v1H25zM28 32h6v1H28zM40 32h4v1H40zM47 32h4v1H47zM52 32h5v1H52zM58 32h1v1H58zM0 33h4v1H0zM5 33h1v1H5zM7 33h2v1H7zM11 33h3v1H11zM15 33h2v1H15zM21 33h1v1H21zM26 33h1v1H26zM28 33h1v1H28zM36 33h2v1H36zM39 33h1v1H39zM41 33h5v1H41zM49 33h1v1H49zM51 33h2v1H51zM2 34h1v1H2zM5 34h3v1H5zM9 34h2v1H9zM12 34h2v1H12zM16 34h1v1H16zM18 34h1v1H18zM20 34h1v1H20zM22 34h2v1H22zM26 34h2v1H26zM29 34h1v1H29zM32 34h1v1H32zM34 34h3v1H34zM39 34h1v1H39zM43 34h6v1H43zM50 34h2v1H50zM53 34h3v1H53zM57,34 h4v1H57zM1 35h1v1H1zM4 35h1v1H4zM10 35h2v1H10zM13 35h5v1H13zM21 35h2v1H21zM24 35h2v1H24zM32 35h2v1H32zM35 35h1v1H35zM41 35h2v1H41zM47 35h1v1H47zM49 35h2v1H49zM52 35h1v1H52zM55 35h1v1H55zM57 35h1v1H57zM59,35 h2v1H59zM2 36h1v1H2zM4 36h3v1H4zM8 36h1v1H8zM14 36h2v1H14zM18 36h1v1H18zM21 36h1v1H21zM23 36h2v1H23zM26 36h1v1H26zM28 36h3v1H28zM32 36h1v1H32zM34 36h3v1H34zM39 36h1v1H39zM42 36h3v1H42zM47 36h3v1H47zM51 36h1v1H51zM56 36h1v1H56zM58 36h1v1H58zM60,36 h1v1H60zM4 37h2v1H4zM7 37h2v1H7zM11 37h5v1H11zM17 37h1v1H17zM24 37h2v1H24zM27 37h4v1H27zM32 37h4v1H32zM38 37h1v1H38zM42 37h1v1H42zM44 37h1v1H44zM48 37h2v1H48zM52 37h1v1H52zM54 37h1v1H54zM2 38h2v1H2zM6 38h2v1H6zM9 38h1v1H9zM13 38h2v1H13zM16 38h1v1H16zM20 38h3v1H20zM24 38h3v1H24zM28 38h2v1H28zM31 38h1v1H31zM35 38h1v1H35zM37 38h1v1H37zM39 38h1v1H39zM41 38h1v1H41zM43 38h3v1H43zM47 38h2v1H47zM50 38h1v1H50zM54 38h2v1H54zM57,38 h4v1H57zM0 39h1v1H0zM2 39h1v1H2zM4 39h1v1H4zM8 39h1v1H8zM13 39h1v1H13zM16 39h1v1H16zM18 39h3v1H18zM22 39h2v1H22zM29 39h2v1H29zM34 39h1v1H34zM36 39h4v1H36zM42 39h1v1H42zM45 39h1v1H45zM50 39h1v1H50zM52 39h2v1H52zM57 39h1v1H57zM0 40h1v1H0zM3 40h1v1H3zM6 40h1v1H6zM8 40h3v1H8zM12 40h1v1H12zM14 40h1v1H14zM16 40h2v1H16zM21 40h1v1H21zM25 40h1v1H25zM27 40h2v1H27zM30 40h1v1H30zM32 40h2v1H32zM37 40h1v1H37zM41 40h3v1H41zM47 40h2v1H47zM51 40h1v1H51zM53 40h1v1H53zM55,40 h6v1H55zM0 41h4v1H0zM7 41h1v1H7zM12 41h1v1H12zM15 41h2v1H15zM20 41h2v1H20zM26 41h2v1H26zM29 41h1v1H29zM32 41h1v1H32zM34 41h7v1H34zM42 41h1v1H42zM44 41h2v1H44zM47 41h1v1H47zM49 41h1v1H49zM51 41h1v1H51zM58 41h1v1H58zM2 42h2v1H2zM6 42h1v1H6zM11 42h1v1H11zM13 42h1v1H13zM20 42h1v1H20zM24 42h2v1H24zM28 42h2v1H28zM33 42h1v1H33zM36 42h1v1H36zM38 42h2v1H38zM41 42h1v1H41zM48 42h3v1H48zM52 42h2v1H52zM55 42h1v1H55zM57,42 h4v1H57zM1 43h1v1H1zM3 43h2v1H3zM8 43h2v1H8zM13 43h3v1H13zM17 43h1v1H17zM21 43h1v1H21zM23 43h3v1H23zM28 43h2v1H28zM35 43h1v1H35zM38 43h2v1H38zM46 43h2v1H46zM54 43h2v1H54zM58 43h2v1H58zM0 44h1v1H0zM5 44h7v1H5zM13 44h1v1H13zM15 44h1v1H15zM17 44h2v1H17zM20 44h2v1H20zM24 44h4v1H24zM30 44h1v1H30zM32 44h2v1H32zM35 44h2v1H35zM42 44h2v1H42zM46 44h1v1H46zM48 44h1v1H48zM50 44h4v1H50zM56 44h2v1H56zM60,44 h1v1H60zM1 45h1v1H1zM4 45h2v1H4zM7 45h3v1H7zM11 45h1v1H11zM14 45h1v1H14zM16 45h4v1H16zM21 45h1v1H21zM24 45h1v1H24zM28 45h1v1H28zM30 45h1v1H30zM35 45h4v1H35zM42 45h2v1H42zM45 45h1v1H45zM48 45h2v1H48zM51 45h1v1H51zM54 45h2v1H54zM58 45h1v1H58zM60,45 h1v1H60zM0 46h5v1H0zM6 46h2v1H6zM11 46h2v1H11zM14 46h1v1H14zM20 46h1v1H20zM27 46h3v1H27zM31 46h1v1H31zM33 46h3v1H33zM38 46h1v1H38zM43 46h1v1H43zM45 46h2v1H45zM51 46h5v1H51zM59,46 h2v1H59zM0 47h1v1H0zM2 47h3v1H2zM9 47h1v1H9zM11 47h1v1H11zM14 47h2v1H14zM23 47h1v1H23zM25 47h1v1H25zM29 47h1v1H29zM34 47h3v1H34zM38 47h1v1H38zM40 47h3v1H40zM44 47h1v1H44zM46 47h4v1H46zM52 47h1v1H52zM59 47h1v1H59zM2 48h3v1H2zM6 48h2v1H6zM12 48h2v1H12zM15 48h1v1H15zM19 48h1v1H19zM22 48h1v1H22zM24 48h2v1H24zM30 48h1v1H30zM33 48h2v1H33zM38 48h2v1H38zM41 48h3v1H41zM45 48h2v1H45zM48 48h2v1H48zM51 48h1v1H51zM53 48h1v1H53zM56 48h3v1H56zM60,48 h1v1H60zM0 49h2v1H0zM3 49h3v1H3zM10 49h1v1H10zM13 49h1v1H13zM18 49h1v1H18zM21 49h2v1H21zM24 49h4v1H24zM30 49h1v1H30zM35 49h1v1H35zM38 49h2v1H38zM41 49h4v1H41zM47 49h2v1H47zM51 49h1v1H51zM54 49h2v1H54zM59 49h1v1H59zM2 50h8v1H2zM13 50h3v1H13zM17 50h3v1H17zM21 50h1v1H21zM23 50h1v1H23zM25 50h1v1H25zM28 50h2v1H28zM31 50h2v1H31zM34 50h2v1H34zM38 50h2v1H38zM42 50h2v1H42zM45 50h2v1H45zM48 50h1v1H48zM50 50h1v1H50zM53 50h3v1H53zM57 50h1v1H57zM60,50 h1v1H60zM0 51h3v1H0zM4 51h1v1H4zM7 51h1v1H7zM9 51h1v1H9zM17 51h2v1H17zM23 51h2v1H23zM26 51h2v1H26zM30 51h1v1H30zM33 51h2v1H33zM36 51h1v1H36zM38 51h1v1H38zM40 51h2v1H40zM43 51h3v1H43zM47 51h1v1H47zM49 51h2v1H49zM52 51h1v1H52zM55 51h2v1H55zM59 51h1v1H59zM0 52h4v1H0zM6 52h1v1H6zM8 52h3v1H8zM13 52h5v1H13zM19 52h2v1H19zM24 52h1v1H24zM26 52h1v1H26zM28 52h6v1H28zM36 52h4v1H36zM45 52h1v1H45zM48 52h1v1H48zM51,52 h10v1H51zM8 53h1v1H8zM11 53h1v1H11zM16 53h1v1H16zM18 53h1v1H18zM21 53h1v1H21zM23 53h3v1H23zM28 53h1v1H28zM32 53h7v1H32zM40 53h2v1H40zM44 53h1v1H44zM47 53h2v1H47zM52 53h1v1H52zM56 53h1v1H56zM59 53h1v1H59zM0 54h7v1H0zM12 54h3v1H12zM16 54h2v1H16zM19 54h1v1H19zM21 54h2v1H21zM24 54h3v1H24zM28 54h1v1H28zM30 54h1v1H30zM32 54h4v1H32zM38 54h1v1H38zM42 54h2v1H42zM46 54h3v1H46zM50 54h1v1H50zM52 54h1v1H52zM54 54h1v1H54zM56 54h1v1H56zM59,54 h2v1H59zM0 55h1v1H0zM6 55h1v1H6zM9 55h1v1H9zM12 55h4v1H12zM20 55h1v1H20zM22 55h1v1H22zM27 55h2v1H27zM32 55h1v1H32zM34 55h2v1H34zM37 55h2v1H37zM40 55h2v1H40zM44 55h1v1H44zM49 55h1v1H49zM51 55h2v1H51zM56 55h1v1H56zM0 56h1v1H0zM2 56h3v1H2zM6 56h1v1H6zM8 56h1v1H8zM10 56h1v1H10zM14 56h6v1H14zM22 56h1v1H22zM25 56h1v1H25zM27 56h9v1H27zM37 56h3v1H37zM43 56h1v1H43zM47 56h2v1H47zM50 56h7v1H50zM58 56h2v1H58zM0 57h1v1H0zM2 57h3v1H2zM6 57h1v1H6zM8 57h1v1H8zM11 57h5v1H11zM20 57h3v1H20zM24 57h3v1H24zM28 57h1v1H28zM30 57h1v1H30zM33 57h2v1H33zM37 57h2v1H37zM41 57h2v1H41zM44 57h1v1H44zM47 57h3v1H47zM51 57h3v1H51zM56 57h1v1H56zM60,57 h1v1H60zM0 58h1v1H0zM2 58h3v1H2zM6 58h1v1H6zM8 58h2v1H8zM12 58h1v1H12zM14 58h1v1H14zM19 58h3v1H19zM27 58h2v1H27zM30 58h5v1H30zM41 58h1v1H41zM43 58h1v1H43zM46 58h2v1H46zM50 58h2v1H50zM54 58h2v1H54zM60,58 h1v1H60zM0 59h1v1H0zM6 59h1v1H6zM11 59h1v1H11zM13 59h2v1H13zM16 59h4v1H16zM22 59h3v1H22zM26 59h1v1H26zM29 59h1v1H29zM31 59h2v1H31zM35 59h1v1H35zM37 59h1v1H37zM39 59h1v1H39zM42 59h3v1H42zM46 59h2v1H46zM51 59h2v1H51zM54 59h2v1H54zM57 59h1v1H57zM60,59 h1v1H60zM0 60h7v1H0zM9 60h1v1H9zM12 60h1v1H12zM15 60h1v1H15zM17 60h1v1H17zM20 60h2v1H20zM26 60h1v1H26zM35 60h1v1H35zM37 60h1v1H37zM43 60h1v1H43zM46 60h1v1H46zM48 60h2v1H48zM53 60h1v1H53zM58,60 h3v1H58z"></path><!----></svg>